<?xml version="1.0" encoding="utf-8"?>
<!-- Generator: Adobe Illustrator 17.1.0, SVG Export Plug-In . SVG Version: 6.00 Build 0)  -->
<!DOCTYPE svg PUBLIC "-//W3C//DTD SVG 1.1//EN" "http://www.w3.org/Graphics/SVG/1.1/DTD/svg11.dtd">
<svg version="1.1" id="Layer_1" xmlns="http://www.w3.org/2000/svg" xmlns:xlink="http://www.w3.org/1999/xlink" x="0px" y="0px"
	 viewBox="0 0 1080 1920" enable-background="new 0 0 1080 1920" xml:space="preserve">
<g id="surface1">
	<path fill="#FFFFFF" d="M526.5,420C234.6,426.8,0,666.4,0,960c0,298.7,241.3,540,540,540s540-241.3,540-540S838.7,420,540,420
		C534.9,420,531.6,420,526.5,420z M526.5,512.8c5.1,0,10.1,0,13.5,0c246.4,0,447.2,200.8,447.2,447.2S786.4,1407.2,540,1407.2
		S92.8,1206.4,92.8,960C92.8,718.7,285.2,521.2,526.5,512.8z"/>
	<path fill="#FFFFFF" d="M617.6,688.3c0,43.9-35.4,77.6-77.6,77.6c-42.2,0-77.6-35.4-77.6-77.6c0-43.9,35.4-77.6,77.6-77.6
		C582.2,610.7,617.6,646.1,617.6,688.3z"/>
	<path fill="#FFFFFF" d="M459,1309.3h162v-259.9h48.9c0,0,0-185.6,0-214.3c0-8.4,0-23.6-10.1-33.8c-11.8-11.8-27-10.1-33.8-10.1
		c-8.4,0-162,0-170.4,0s-23.6,0-33.8,10.1c-11.8,11.8-10.1,27-10.1,33.8c0,28.7,0,214.3,0,214.3h48.9v259.9H459z"/>
</g>
</svg>
